      <svg
        id="visual"
        viewBox="0 0 960 200"
        width="960"
        height="200"
        xmlns="http://www.w3.org/2000/svg"
        xmlns:xlink="http://www.w3.org/1999/xlink"
        version="1.1"
      >
        <path
          d="M0 71L22.8 74.5C45.7 78 91.3 85 137 85.2C182.7 85.3 228.3 78.7 274 74.7C319.7 70.7 365.3 69.3 411.2 68.2C457 67 503 66 548.8 68.2C594.7 70.3 640.3 75.7 686 80.3C731.7 85 777.3 89 823 88.7C868.7 88.3 914.3 83.7 937.2 81.3L960 79L960 0L937.2 0C914.3 0 868.7 0 823 0C777.3 0 731.7 0 686 0C640.3 0 594.7 0 548.8 0C503 0 457 0 411.2 0C365.3 0 319.7 0 274 0C228.3 0 182.7 0 137 0C91.3 0 45.7 0 22.8 0L0 0Z"
          fill="#ffffff"
        ></path>
        <path
          d="M0 69L22.8 67.2C45.7 65.3 91.3 61.7 137 57.7C182.7 53.7 228.3 49.3 274 49.8C319.7 50.3 365.3 55.7 411.2 56.3C457 57 503 53 548.8 54C594.7 55 640.3 61 686 60.7C731.7 60.3 777.3 53.7 823 53.8C868.7 54 914.3 61 937.2 64.5L960 68L960 0L937.2 0C914.3 0 868.7 0 823 0C777.3 0 731.7 0 686 0C640.3 0 594.7 0 548.8 0C503 0 457 0 411.2 0C365.3 0 319.7 0 274 0C228.3 0 182.7 0 137 0C91.3 0 45.7 0 22.8 0L0 0Z"
          fill="#ffe0d5"
        ></path>
        <path
          d="M0 42L22.8 42.8C45.7 43.7 91.3 45.3 137 45.5C182.7 45.7 228.3 44.3 274 43.7C319.7 43 365.3 43 411.2 44.8C457 46.7 503 50.3 548.8 49C594.7 47.7 640.3 41.3 686 40.5C731.7 39.7 777.3 44.3 823 47C868.7 49.7 914.3 50.3 937.2 50.7L960 51L960 0L937.2 0C914.3 0 868.7 0 823 0C777.3 0 731.7 0 686 0C640.3 0 594.7 0 548.8 0C503 0 457 0 411.2 0C365.3 0 319.7 0 274 0C228.3 0 182.7 0 137 0C91.3 0 45.7 0 22.8 0L0 0Z"
          fill="#fec1ad"
        ></path>
        <path
          d="M0 29L22.8 29.8C45.7 30.7 91.3 32.3 137 31.7C182.7 31 228.3 28 274 25.8C319.7 23.7 365.3 22.3 411.2 20.3C457 18.3 503 15.7 548.8 15C594.7 14.3 640.3 15.7 686 16.7C731.7 17.7 777.3 18.3 823 20C868.7 21.7 914.3 24.3 937.2 25.7L960 27L960 0L937.2 0C914.3 0 868.7 0 823 0C777.3 0 731.7 0 686 0C640.3 0 594.7 0 548.8 0C503 0 457 0 411.2 0C365.3 0 319.7 0 274 0C228.3 0 182.7 0 137 0C91.3 0 45.7 0 22.8 0L0 0Z"
          fill="#f9a285"
        ></path>
      </svg>